# xmcd
#
# Track frame offsets: 
#        150
#        19725
#        41287
#        60865
#        82149
#        108043
#        127935
#        150622
#        171800
#        192974
#        217728
#        237188
#
# Disc length: 3433 seconds
#
# Revision: 1
# Processed by: cddbd v1.5.2PL0 Copyright (c) Steve Scherf et al.
# Submitted via: ExactAudioCopy v1.0b3
#
DISCID=870d670c
DTITLE=The Latin Brothers - Lo más sabroso... La Salsa
DYEAR=1999
DGENRE=Salsa
TTITLE0=Lo más sabroso
TTITLE1=Lluve
TTITLE2=Lo bailo y lo gozo
TTITLE3=El amor mueve montañas
TTITLE4=El esqueleto
TTITLE5=El vacán
TTITLE6=Mi caleñita
TTITLE7=Mi vieja
TTITLE8=No vuelvas a mi
TTITLE9=Redención
TTITLE10=Estoy solo
TTITLE11=El talisman
EXTD=YEAR: 1999
EXTT0=
EXTT1=
EXTT2=
EXTT3=
EXTT4=
EXTT5=
EXTT6=
EXTT7=
EXTT8=
EXTT9=
EXTT10=
EXTT11=
PLAYORDER=
